<svg xmlns="http://www.w3.org/2000/svg" xmlns:xlink="http://www.w3.org/1999/xlink" id="Layer_1" enable-background="new 0 0 20 20" viewBox="0 0 20 20"><defs id="defs12"><linearGradient id="linearGradient4136"><stop id="stop4138" offset="0" stop-color="#000092"/><stop id="stop4140" offset="1" stop-color="#ff00f3"/></linearGradient><linearGradient id="linearGradient4142" x1="2.477" x2="16" y1="9.5" y2="9.5" gradientUnits="userSpaceOnUse" xlink:href="#linearGradient4136"/></defs><path id="XMLID_1580_" fill="url(#linearGradient4142)" stroke-miterlimit="10" d="M 11 2.5 C 10.738889 2.5 10.471718 2.594688 10.283203 2.7832031 C 10.094688 2.9717184 10 3.2388889 10 3.5 L 10 8 C 10 8.2611111 10.09469 8.5282816 10.283203 8.7167969 C 10.471718 8.9053121 10.738889 9 11 9 L 15.5 9 C 15.761111 9 16.028282 8.9053121 16.216797 8.7167969 C 16.405312 8.5282816 16.5 8.2611111 16.5 8 L 16.5 3.5 C 16.5 3.2388889 16.405312 2.9717184 16.216797 2.7832031 C 16.028282 2.5946879 15.761111 2.5 15.5 2.5 L 11 2.5 z M 5.7382812 2.5742188 C 5.4219352 2.5742188 5.0914387 2.7134278 4.8847656 3.0234375 L 4.8671875 3.0488281 L 2.5371094 7.7089844 L 2.5253906 7.7421875 C 2.4279566 8.0344897 2.4765711 8.3730579 2.6679688 8.6191406 C 2.8593663 8.8652233 3.175 9 3.5 9 L 8.0996094 9 C 8.416276 9 8.7208693 8.8321228 8.875 8.5546875 C 9.0291307 8.2772522 9.0017448 7.9010546 8.8164062 7.6230469 L 8.8476562 7.6757812 L 6.546875 3.0761719 L 6.5742188 3.1425781 C 6.4451615 2.7554078 6.0546274 2.5742186 5.7382812 2.5742188 z M 11 3.5 L 15.5 3.5 L 15.5 8 L 11 8 L 11 3.5 z M 5.6992188 3.6191406 L 7.890625 8 L 3.5097656 8 L 5.6992188 3.6191406 z M 5.8007812 9.9003906 C 3.984164 9.9003906 2.5 11.382601 2.5 13.199219 C 2.5 15.015836 3.9841639 16.5 5.8007812 16.5 C 7.6173987 16.5 9.0996094 15.015836 9.0996094 13.199219 C 9.0996094 11.382601 7.6173986 9.9003907 5.8007812 9.9003906 z M 10.949219 10.449219 C 10.824219 10.449219 10.699609 10.499609 10.599609 10.599609 C 10.399609 10.799609 10.399609 11.100781 10.599609 11.300781 L 12.5 13.199219 L 10.5 15.199219 C 10.3 15.399219 10.3 15.700391 10.5 15.900391 C 10.7 16.000391 10.800391 16 10.900391 16 C 11.000391 16 11.099219 16.000391 11.199219 15.900391 L 13.199219 13.900391 L 15.199219 15.900391 C 15.299219 16.000391 15.4 16 15.5 16 C 15.7 16 15.800391 16.000391 15.900391 15.900391 C 16.100391 15.700391 16.100391 15.399219 15.900391 15.199219 L 13.900391 13.199219 L 15.800781 11.300781 C 16.000781 11.100781 16.000781 10.799609 15.800781 10.599609 C 15.600781 10.399609 15.299609 10.399609 15.099609 10.599609 L 13.199219 12.5 L 11.300781 10.599609 C 11.200781 10.499609 11.074219 10.449219 10.949219 10.449219 z M 5.8007812 10.900391 C 7.0769585 10.900391 8.0996094 11.923042 8.0996094 13.199219 C 8.0996094 14.475396 7.0769586 15.5 5.8007812 15.5 C 4.524604 15.5 3.5 14.475396 3.5 13.199219 C 3.5 11.923042 4.5246041 10.900391 5.8007812 10.900391 z " color="#000" font-family="sans-serif" font-weight="400" overflow="visible" white-space="normal" style="line-height:normal;text-indent:0;text-align:start;text-decoration-line:none;text-decoration-style:solid;text-decoration-color:#000;text-transform:none;block-progression:tb;isolation:auto;mix-blend-mode:normal"/></svg>