<svg xmlns="http://www.w3.org/2000/svg" viewBox="0 0 32 32"><path fill="#3e5a72" d="M30,5H2A1,1,0,0,1,2,3H30a1,1,0,0,1,0,2Z"/><path fill="#2a3d4f" d="M31,4a1,1,0,0,1-1,1H16V3H30A1,1,0,0,1,31,4Z"/><path fill="#45ace5" d="M16,29A13,13,0,1,1,29,16,13,13,0,0,1,16,29ZM16,5A11,11,0,1,0,27,16,11,11,0,0,0,16,5Z"/><path fill="#3c96d1" d="M28.65,13a13.07,13.07,0,0,0-5.73-8A12.93,12.93,0,0,0,16,3V5a10.69,10.69,0,0,1,3,.41A11,11,0,0,1,26.59,13a10.89,10.89,0,0,1,0,5.92A11,11,0,0,1,19,26.59,10.69,10.69,0,0,1,16,27v2A13,13,0,0,0,28.65,13Z"/><rect width="6" height="6" x="13" y="1" fill="#ffd766" rx="2" ry="2"/><rect width="6" height="6" x="13" y="25" fill="#ffd766" rx="2" ry="2"/><rect width="6" height="6" x="25" y="13" fill="#ffd766" rx="2" ry="2"/><rect width="6" height="6" x="1" y="13" fill="#ffd766" rx="2" ry="2"/><path fill="#f2c861" d="M19 3V5a1.84 1.84 0 0 1 0 .41A2 2 0 0 1 17 7H16V1h1A2 2 0 0 1 19 3zM19 27v2a2 2 0 0 1-2 2H16V25h1a2 2 0 0 1 2 1.59A1.84 1.84 0 0 1 19 27z"/><rect width="6" height="6" x="25" y="13" fill="#f2c861" rx="2" ry="2"/></svg>