<svg xmlns="http://www.w3.org/2000/svg" data-name="Layer 1" viewBox="0 0 98 98"><g data-name="&lt;Group&gt;"><g data-name="&lt;Group&gt;"><rect width="18.3" height="11.6" x="69.9" y="74.5" fill="#87e680" data-name="&lt;Group&gt;"/><rect width="18.3" height="11.6" x="69.9" y="52.5" fill="#46c43d" data-name="&lt;Group&gt;"/><rect width="18.3" height="11.6" x="69.9" y="30.5" fill="#87e680" data-name="&lt;Group&gt;"/><rect width="76.3" height="11.6" x="11.9" y="8.5" fill="#00acea" data-name="&lt;Group&gt;"/><rect width="47.3" height="33.9" x="11.9" y="30.5" fill="#00efd1" data-name="&lt;Group&gt;"/></g><g data-name="&lt;Group&gt;"><path fill="#00acea" d="M42.2 79.5H11.8a2 2 0 0 1-2-2 1.9 1.9 0 0 1 2-2H42.2a1.9 1.9 0 0 1 2 2A2 2 0 0 1 42.2 79.5zM58.2 89.5H11.8a2 2 0 0 1-2-2 1.9 1.9 0 0 1 2-2H58.2a1.9 1.9 0 0 1 2 2A2 2 0 0 1 58.2 89.5z" data-name="&lt;Group&gt;"/></g></g></svg>